<svg xmlns="http://www.w3.org/2000/svg" viewBox="0 0 366.57 127.17"><defs><style>.cls-1{fill:#f9ed32;}.cls-2{fill:#2b3990;}.cls-3{fill:none;stroke:#2b3990;stroke-miterlimit:10;stroke-width:4px;}.cls-4{fill:#fff;}</style></defs><title>augie_catholic_logo</title><g id="Layer_2" data-name="Layer 2"><g id="Layer_1-2" data-name="Layer 1"><path class="cls-1" d="M271,12.34v-1h95.55c-.25,1-.43,1.8-.64,2.58-.67,2.57-1.8,5.12-2,7.72-.61,10-1,20-1.3,30-.3,9.22-.38,18.45-.6,27.68-.1,4.2-.23,8.41-.54,12.6a47.28,47.28,0,0,1-1.22,9.54c-1.76,6.13-6.52,9.6-12,12.23-6.41,3-13.29,4.49-20.16,6a80.9,80.9,0,0,0-8.53,2.91H317a3.81,3.81,0,0,0-.7-.35L299,117.34c-4.92-1.4-9.62-3.27-13.6-6.6a15.35,15.35,0,0,1-5.76-9.63c-.43-3-.52-6-.71-9-.59-9-1.15-18-1.73-27-.74-11.56-1.59-23.11-2.2-34.68A64.44,64.44,0,0,0,271,12.34Z"/><polyline class="cls-1" points="318.93 123.82 328.56 118.59 318.15 117.54"/><polygon class="cls-2" points="318.93 123.82 303.88 118.69 303.88 11.36 318.93 11.36 318.93 123.82"/><polygon class="cls-2" points="362.47 63.59 277.1 63.59 276.03 47.55 362.8 47.55 362.47 63.59"/><polyline class="cls-3" points="329.41 113.02 329.41 71.99 339.01 89.78 349.49 71.99 349.49 106.25"/><rect class="cls-1" x="323.95" y="63.59" width="32.95" height="6.11"/><path class="cls-4" d="M90.24,35.91h-19l-9.8,24.44a13.9,13.9,0,0,0-1,3.25c0,1,.71,1.45,2.15,1.45v.66H53v-.66a5.43,5.43,0,0,0,3.25-.94c.88-.63,1.85-2.27,2.9-4.9L82.57,0h1.16l23.09,57.18a24.85,24.85,0,0,0,1.77,4.16c1.19,2.48,3,3.71,5.42,3.71v.66H98.89v-.66c1.37,0,2.06-.54,2.06-1.62a10.72,10.72,0,0,0-1-3.52,1.5,1.5,0,0,1-.31-.57c-.06-.29-.1-.44-.13-.44Zm-18.38-1.8H89.37L80.62,12Z"/><path class="cls-4" d="M143.83,54.17h-7.34v-6a17.35,17.35,0,0,1-13.34,6.23q-5.75,0-9.13-3.23t-3.37-8.94V19.07a4.59,4.59,0,0,0-.5-2.67q-.5-.57-2.34-.57v-.39h10.28v.39a3.89,3.89,0,0,0-2.3.52c-.45.34-.67,1.15-.67,2.43V40.05q0,6.68,3.12,9.53a10.29,10.29,0,0,0,7.12,2.85q6.27,0,11.13-5.65V20.57c0-2.3-.2-3.66-.6-4.09a2.49,2.49,0,0,0-1.89-.65h-.37v-.39h10.2v.39a3.79,3.79,0,0,0-2.38.64,3,3,0,0,0-.49,2V50a9.52,9.52,0,0,0,.19,2.44,1.75,1.75,0,0,0,.75,1,3.54,3.54,0,0,0,1.93.38Z"/><path class="cls-4" d="M186.05,53.77v.4H170.44a28.52,28.52,0,0,1-7.88-1,20.7,20.7,0,0,1-6.89-3.69A21,21,0,0,1,150,42.73a17.4,17.4,0,0,1-2.16-8.28,17.93,17.93,0,0,1,2.72-9.23,20.7,20.7,0,0,1,7.74-7.48,22.46,22.46,0,0,1,11.38-2.88,32.6,32.6,0,0,1,12.07,2.53l1.61,4.47H183a15.37,15.37,0,0,0-5.53-4.28,17.76,17.76,0,0,0-7.82-1.69,15.37,15.37,0,0,0-12.27,5.64,20.88,20.88,0,0,0-4.78,14,22.14,22.14,0,0,0,.79,6.19,15.15,15.15,0,0,0,3,5.36A14.59,14.59,0,0,0,161,51a18.76,18.76,0,0,0,5.56,1.74,27.74,27.74,0,0,0,4.89.43l2.08,0c2.34-.09,3.81-.31,4.4-.66s.88-1.24.88-2.68V43.89a2.92,2.92,0,0,0-.71-2.3,2.78,2.78,0,0,0-2-.52v-.39h10v.39a2.89,2.89,0,0,0-2.24.66,4,4,0,0,0-.57,2.52v6.09a5.22,5.22,0,0,0,.49,2.63,1.88,1.88,0,0,0,1.77.8Z"/><path class="cls-4" d="M199.12,15.44v.39a4.11,4.11,0,0,0-1.7.24,1.51,1.51,0,0,0-1.1.92,14.39,14.39,0,0,0-.17,2.86V49.57a11.87,11.87,0,0,0,.2,3,1.79,1.79,0,0,0,.76.89,4,4,0,0,0,2,.35v.4H188.79v-.4c1.29,0,2.1-.25,2.42-.75a7.66,7.66,0,0,0,.47-3.4V20.2a8,8,0,0,0-.53-3.62c-.35-.57-1.14-.82-2.36-.75v-.39Z"/><path class="cls-4" d="M203,15.89v-.45h24.34v5.34H227a10.1,10.1,0,0,0-1.33-3.5,4.22,4.22,0,0,0-2.64-.53H210.24V34.13H222.1a4.64,4.64,0,0,0,2.23-.33,1.11,1.11,0,0,0,.5-1h.4V36.5h-.4a1.34,1.34,0,0,0-.62-1,4.28,4.28,0,0,0-1.8-.26H210.24v12a11.08,11.08,0,0,0,.5,3.91,2.37,2.37,0,0,0,1.59,1.5,13.29,13.29,0,0,0,3.29.3h6.83a23,23,0,0,0,4.16-.22,3.16,3.16,0,0,0,1.54-.89,6,6,0,0,0,1-2.91h.39v5.31H203v-.4a4.32,4.32,0,0,0,2-.51c.47-.29.7-1,.7-2.25V19.75a8.41,8.41,0,0,0-.37-3C205.16,16.18,204.37,15.89,203,15.89Z"/><path class="cls-4" d="M56,64.67l2.42,6.86h-.65a30.34,30.34,0,0,0-22.14-9.37Q22.4,62.16,14.26,70a25.5,25.5,0,0,0-8.15,19q0,6.91,3.63,15.87a33.62,33.62,0,0,0,11.45,14.75q7.81,5.77,18.94,5.78a44.71,44.71,0,0,0,14.31-2.35q7-2.35,10.44-6.31l.57.18-4.53,6.94q-11,2.37-14.26,2.81a67.76,67.76,0,0,1-8.77.44q-20.35,0-29.12-9.42A32,32,0,0,1,0,95.17,34.91,34.91,0,0,1,4.51,78.1a32.56,32.56,0,0,1,13-12.93,39.29,39.29,0,0,1,19.39-4.72,39.5,39.5,0,0,1,9.43,1,52.67,52.67,0,0,1,6.61,2l2.9,1.1A.49.49,0,0,1,56,64.67Z"/><path class="cls-4" d="M61.47,96H50.1l-5.86,14.62a8.75,8.75,0,0,0-.61,2q0,.87,1.29.87v.39H39.16v-.39a3.26,3.26,0,0,0,2-.57,7.16,7.16,0,0,0,1.73-2.93l14-35.42h.69l13.81,34.21a15.67,15.67,0,0,0,1.06,2.48,3.43,3.43,0,0,0,3.24,2.23v.39h-9v-.39c.82,0,1.23-.33,1.23-1a6.4,6.4,0,0,0-.6-2.1.82.82,0,0,1-.18-.34.91.91,0,0,0-.08-.27Zm-11-1.07H61l-5.24-13.2Z"/><path class="cls-4" d="M103.79,73.72,102,78.4h-.4a4.82,4.82,0,0,0,.11-1.13.74.74,0,0,0-.43-.77,3.92,3.92,0,0,0-1.38-.17H89.75v33.13a7.9,7.9,0,0,0,.33,2.79,1.59,1.59,0,0,0,.89,1,6.13,6.13,0,0,0,1.83.2v.39H82.31v-.39a3.59,3.59,0,0,0,2.47-.77,4.63,4.63,0,0,0,.5-2.62V76.33H75.6a6.47,6.47,0,0,0-1.92.17c-.29.11-.44.39-.44.85a4.11,4.11,0,0,0,.21,1.05h-.4l-1.84-4.68h.4a2.34,2.34,0,0,0,.93,1.15,6.31,6.31,0,0,0,2,.19h25.7a8.77,8.77,0,0,0,2.19-.19,1.6,1.6,0,0,0,1-1.15Z"/><path class="cls-4" d="M134.26,94.47H113v14.88a10.83,10.83,0,0,0,.2,2.68,1.92,1.92,0,0,0,.73,1,3.34,3.34,0,0,0,1.88.4v.39h-10v-.39c1.82.12,2.73-.77,2.73-2.66V79.61a7.9,7.9,0,0,0-.43-3.36c-.29-.48-1.06-.74-2.3-.79v-.4h10v.4a3.79,3.79,0,0,0-2.23.63,2.91,2.91,0,0,0-.58,2.15V93.39h21.27V79.53a8.56,8.56,0,0,0-.41-3.22c-.27-.57-1-.85-2.27-.85v-.4h9.88v.4a4.26,4.26,0,0,0-1.74.27,1.5,1.5,0,0,0-.78.86,11.74,11.74,0,0,0-.21,2.94v29.71a11.21,11.21,0,0,0,.21,2.86,2,2,0,0,0,.73.93,3.25,3.25,0,0,0,1.79.37v.39h-9.88v-.39a2.69,2.69,0,0,0,2.14-.66q.54-.66.54-3.54Z"/><path class="cls-4" d="M167.07,74.48q8.15,0,13.33,5a16.43,16.43,0,0,1,5.18,12.37,22.86,22.86,0,0,1-6,16.06q-6,6.52-15.91,6.52a17.74,17.74,0,0,1-18.3-17.87,23.85,23.85,0,0,1,2.47-10.2,20.56,20.56,0,0,1,19.22-11.84Zm-.16,37.86a16.15,16.15,0,0,0,7.89-2.14,16,16,0,0,0,6.13-5.9,14.94,14.94,0,0,0,2.23-7.73,18.27,18.27,0,0,0-3-10.23,21.41,21.41,0,0,0-7.81-7.2,18.74,18.74,0,0,0-8.87-2.6A15,15,0,0,0,153,80.87a14.09,14.09,0,0,0-4.69,10.78,20.69,20.69,0,0,0,5.73,14.46Q159.79,112.35,166.91,112.34Z"/><path class="cls-4" d="M188,113.79v-.39a3,3,0,0,0,2.35-.69,3.83,3.83,0,0,0,.54-2.34V78.69a5.23,5.23,0,0,0-.42-2.43c-.28-.5-1.13-.77-2.53-.8v-.4h10.39v.4a4,4,0,0,0-2,.37,1.77,1.77,0,0,0-.76.86,8.6,8.6,0,0,0-.18,2.26v27.19q0,3.49,1.68,4.93c1.12,1,3,1.43,5.75,1.43h4.72q3.42,0,5-1.68t1.78-6.34h.39v9.31Z"/><path class="cls-4" d="M228.72,75.06v.4a3.87,3.87,0,0,0-1.69.23,1.55,1.55,0,0,0-1.11.92,14.52,14.52,0,0,0-.17,2.87v29.71a12.42,12.42,0,0,0,.2,3,1.8,1.8,0,0,0,.76.89,4,4,0,0,0,2,.36v.39H218.39v-.39c1.3,0,2.1-.25,2.42-.75a7.6,7.6,0,0,0,.47-3.41V79.82a8,8,0,0,0-.52-3.61q-.52-.85-2.37-.75v-.4Z"/><path class="cls-4" d="M266,77l1.45,4.1H267a18.16,18.16,0,0,0-13.24-5.6q-7.92,0-12.79,4.71a15.22,15.22,0,0,0-4.87,11.38,25.71,25.71,0,0,0,2.17,9.49,20.08,20.08,0,0,0,6.85,8.82,18.49,18.49,0,0,0,11.33,3.46,26.71,26.71,0,0,0,8.56-1.41,13.86,13.86,0,0,0,6.24-3.77l.34.11-2.71,4.15q-6.57,1.42-8.53,1.68a40.38,40.38,0,0,1-5.24.26q-12.18,0-17.42-5.63a19.13,19.13,0,0,1-5.25-13.51A20.88,20.88,0,0,1,235.18,85,19.46,19.46,0,0,1,243,77.31a23.46,23.46,0,0,1,11.59-2.83,23.21,23.21,0,0,1,5.64.6,30.28,30.28,0,0,1,4,1.22l1.73.66A.19.19,0,0,1,266,77Z"/></g></g></svg>